<svg 
 xmlns="http://www.w3.org/2000/svg"
 xmlns:xlink="http://www.w3.org/1999/xlink"
 width="21px" height="20px">
<path fill-rule="evenodd"  fill="rgb(41, 40, 45)"
 d="M19.778,4.589 C19.097,2.169 17.096,0.726 15.605,0.218 C13.902,-0.377 11.858,0.218 10.027,1.829 C8.196,0.259 6.152,-0.293 4.449,0.259 C2.959,0.811 0.957,2.254 0.276,4.630 C-0.192,6.201 -0.235,8.747 2.235,11.845 C3.342,13.246 5.045,15.241 6.450,16.811 C9.133,19.825 9.559,19.993 9.942,19.993 C9.985,19.993 9.985,19.993 10.027,19.993 L10.070,19.993 L10.112,19.993 C10.496,19.993 10.879,19.825 13.561,16.769 C14.967,15.155 16.670,13.160 17.777,11.802 C20.247,8.705 20.247,6.159 19.778,4.589 ZM16.500,10.784 C14.541,13.246 11.177,17.108 10.027,18.169 C8.877,17.108 5.513,13.246 3.555,10.784 C1.937,8.790 1.341,6.837 1.852,5.097 C2.362,3.315 3.853,2.254 4.960,1.872 C6.195,1.405 7.856,2.042 9.388,3.528 C9.686,3.824 10.112,3.867 10.453,3.654 C10.538,3.612 10.623,3.569 10.666,3.484 C12.199,2.042 13.860,1.405 15.094,1.829 C16.201,2.254 17.692,3.315 18.203,5.097 C18.714,6.795 18.118,8.790 16.500,10.784 Z"/>
</svg>